<?xml version="1.0" encoding="utf-8"?>
<!-- Generator: Adobe Illustrator 26.1.0, SVG Export Plug-In . SVG Version: 6.00 Build 0)  -->
<svg version="1.1" id="Livello_1" xmlns="http://www.w3.org/2000/svg" xmlns:xlink="http://www.w3.org/1999/xlink" x="0px" y="0px"
	 viewBox="0 0 90.4 93.1" style="enable-background:new 0 0 90.4 93.1;" xml:space="preserve">
<style type="text/css">
	.st0{fill-rule:evenodd;clip-rule:evenodd;fill:#FFFFFF;}
	.st1{fill:#FFFFFF;}
</style>
<polygon class="st0" points="19.2,11 19.2,0 52,0 49.7,5.5 24.6,5.5 24.6,11 "/>
<polygon class="st0" points="25.2,49.3 41.4,11 47.4,11 31.1,49.3 "/>
<polygon class="st0" points="52,60.2 20.5,60.2 22.8,54.8 46.6,54.8 46.6,49.3 52,49.3 "/>
<rect y="0" class="st0" width="11" height="5.5"/>
<rect y="54.8" class="st0" width="11" height="5.5"/>
<rect x="2.7" y="11" class="st0" width="5.5" height="38.3"/>
<path class="st0" d="M73.9,0c-9.1,0-16.4,7.4-16.4,16.4c0,7.4,4.9,13.7,11.6,15.7l4.8-4.8c-6,0-10.9-4.9-10.9-11c0-6.1,4.9-11,11-11
	c3,0,5.8,1.2,7.8,3.2l3.9-3.9C82.6,1.8,78.5,0,73.9,0"/>
<path class="st0" d="M78.7,28.1L74,32.9c6,0,10.9,4.9,10.9,11c0,6.1-4.9,11-11,11c-3,0-5.8-1.2-7.7-3.2l-3.9,3.9
	c3,3,7.1,4.8,11.6,4.8c9.1,0,16.4-7.4,16.4-16.4C90.4,36.4,85.5,30.1,78.7,28.1"/>
<path class="st1" d="M87,75.3c0-1.1-0.4-2.1-1.2-2.9c-0.8-0.8-1.8-1.2-2.9-1.2c-1.1,0-2.1,0.4-2.9,1.2c-0.8,0.8-1.2,1.8-1.2,2.9
	c0,1.1,0.4,2.1,1.2,2.9c0.8,0.8,1.8,1.2,2.9,1.2c1.1,0,2.1-0.4,2.9-1.2C86.6,77.4,87,76.5,87,75.3 M79.6,75.3c0-0.9,0.3-1.7,0.9-2.4
	c0.6-0.6,1.4-1,2.3-1c0.9,0,1.7,0.3,2.3,1c0.6,0.6,0.9,1.4,0.9,2.4c0,0.9-0.3,1.7-0.9,2.4c-0.6,0.6-1.4,1-2.3,1
	c-0.9,0-1.7-0.3-2.3-1C79.9,77,79.6,76.3,79.6,75.3z M68.9,72.8v6.5h0.9v-8H69l-3.3,4.3l-3.3-4.3h-0.7v8h0.9v-6.5l3.2,4.2L68.9,72.8
	z M51.3,77.1l0.9,2.2h0.9l-3.3-8H49l-3.3,8h0.9l0.9-2.2H51.3z M50.9,76.3h-3.1l1.5-3.8L50.9,76.3z M35,72.1c0.5,0,0.9,0.1,1.2,0.4
	c0.3,0.3,0.4,0.7,0.4,1.2c0,0.5-0.1,0.9-0.4,1.2c-0.3,0.3-0.7,0.4-1.2,0.4h-2.3v-3.2H35z M31.8,71.3v8h0.9v-3.2h2.3l1.8,3.2h1
	L35.8,76l0.2-0.1c0.1,0,0.2-0.1,0.4-0.2c0.2-0.1,0.3-0.2,0.5-0.4c0.2-0.2,0.3-0.4,0.4-0.7c0.1-0.3,0.2-0.6,0.2-0.9
	c0-0.7-0.2-1.3-0.7-1.7c-0.5-0.5-1.1-0.7-1.8-0.7H31.8z M18.2,78.5v-3h3.7v-0.8h-3.7v-2.6h4.6v-0.8h-5.5v8H23v-0.8H18.2z M3,71.3
	v0.8h2.5v7.2h0.9v-7.2h2.5v-0.8H3z"/>
<polygon class="st0" points="11.2,82.2 9.7,82.2 5.1,93.1 6.6,93.1 "/>
</svg>
