<?xml version="1.0" encoding="UTF-8" standalone="no"?>
<!-- Created with Inkscape (http://www.inkscape.org/) -->

<svg
   width="107.0645mm"
   height="119.54323mm"
   viewBox="0 0 107.0645 119.54323"
   version="1.1"
   id="svg1"
   sodipodi:docname="logo-ev.svg"
   inkscape:version="1.3 (0e150ed, 2023-07-21)"
   xmlns:inkscape="http://www.inkscape.org/namespaces/inkscape"
   xmlns:sodipodi="http://sodipodi.sourceforge.net/DTD/sodipodi-0.dtd"
   xmlns="http://www.w3.org/2000/svg"
   xmlns:svg="http://www.w3.org/2000/svg">
  <sodipodi:namedview
     id="namedview1"
     pagecolor="#ffffff"
     bordercolor="#000000"
     borderopacity="0.25"
     inkscape:showpageshadow="2"
     inkscape:pageopacity="0.0"
     inkscape:pagecheckerboard="0"
     inkscape:deskcolor="#d1d1d1"
     inkscape:document-units="mm"
     showguides="true"
     inkscape:zoom="1.1044542"
     inkscape:cx="53.420051"
     inkscape:cy="178.82136"
     inkscape:window-width="2464"
     inkscape:window-height="1600"
     inkscape:window-x="880"
     inkscape:window-y="81"
     inkscape:window-maximized="0"
     inkscape:current-layer="layer1" />
  <defs
     id="defs1" />
  <g
     inkscape:label="Livello 1"
     inkscape:groupmode="layer"
     id="layer1"
     transform="translate(-6.2178011,-6.7497657)">
    <g
       id="g2"
       style="fill:#ffffff;fill-opacity:1"
       transform="translate(-1185.9539,-468.42587)">
      <path
         id="path28-4-2"
         style="color:#000000;fill:#ffffff;fill-opacity:1;fill-rule:evenodd;stroke-linecap:round;stroke-linejoin:round;-inkscape-stroke:none"
         d="m 1199.2793,475.17584 a 3.5,3.5 0 0 0 -3.2169,2.18746 c -2.5097,6.19899 -3.8907,12.98055 -3.8907,20.06647 0,28.32855 22.122,51.56307 50,53.37297 v 9.19531 a 3.5,3.5 0 0 0 3.5001,3.50004 3.5,3.5 0 0 0 3.5,-3.50004 v -12.56823 -21.32583 c 7.7457,0.56369 14.9573,3.0101 21.1806,6.89416 h -5.8973 a 2,2 0 0 0 -1.9999,1.99987 2,2 0 0 0 1.9999,1.99988 h 11.3709 c 2.9398,2.49525 5.5609,5.34978 7.8026,8.49716 l -25.3902,-0.0145 a 2,2 0 0 0 -2.0019,1.99988 2,2 0 0 0 1.9999,1.99987 l 27.945,0.016 c 1.5221,2.67904 2.786,5.52267 3.7574,8.50181 h -19.2339 a 2,2 0 0 0 -1.9999,1.99988 2,2 0 0 0 1.9999,1.99988 h 20.3388 c 0.6278,2.73809 1.0197,5.56597 1.142,8.46666 h -9.0139 a 2,2 0 0 0 -1.9999,2.0004 2,2 0 0 0 1.9999,1.99987 h 9.017 c -0.099,2.33449 -0.3681,4.62175 -0.7979,6.85178 h -45.7191 a 3.5,3.5 0 0 0 -1.0015,0.15813 3.5,3.5 0 0 0 -0.1168,0.0315 3.5,3.5 0 0 0 -0.8563,0.43614 3.5,3.5 0 0 0 -0.1354,0.0951 3.5,3.5 0 0 0 -0.6687,0.66869 3.5,3.5 0 0 0 -0.095,0.13539 3.5,3.5 0 0 0 -0.4361,0.85732 3.5,3.5 0 0 0 -0.031,0.11575 3.5,3.5 0 0 0 -0.1592,1.00149 v 6.40271 a 3.5,3.5 0 0 0 3.5001,3.50005 3.5,3.5 0 0 0 3.5,-3.50005 v -2.90266 h 45.0272 a 3.5,3.5 0 0 0 0.2946,-0.0465 3.5,3.5 0 0 0 0.4315,-0.0682 3.5,3.5 0 0 0 0.8015,-0.2837 3.5,3.5 0 0 0 0.3664,-0.18655 3.5,3.5 0 0 0 0.802,-0.72192 3.5,3.5 0 0 0 0.1183,-0.11834 3.5,3.5 0 0 0 0.5349,-1.12035 3.5,3.5 0 0 0 0.043,-0.091 c 1.0749,-4.22967 1.6449,-8.65919 1.6449,-13.21469 0,-28.35052 -22.156,-51.60009 -50.0647,-53.37814 v -21.65708 a 3.50035,3.50035 0 0 0 -3.5,-3.50004 h -6.2498 a 3.5,3.5 0 0 0 -3.5,3.50004 3.5,3.5 0 0 0 3.5,3.50005 h 2.7497 v 42.85578 c -7.6763,-0.56927 -14.8272,-2.9865 -21.0085,-6.82077 h 5.7588 a 2,2 0 0 0 1.9999,-1.99988 2,2 0 0 0 -1.9999,-1.99988 h -11.2613 c -2.9516,-2.49394 -5.583,-5.35039 -7.8347,-8.50025 h 25.3458 a 2,2 0 0 0 2.0004,-1.99988 2,2 0 0 0 -2.0004,-1.99988 h -27.9063 c -1.5337,-2.68914 -2.8071,-5.54493 -3.7853,-8.53746 h 19.1915 a 2,2 0 0 0 2.0004,-1.99988 2,2 0 0 0 -2.0004,-1.99988 h -20.3 c -0.7761,-3.37425 -1.1999,-6.88477 -1.1999,-10.49807 0,-6.17738 1.1998,-12.05689 3.3791,-17.43976 a 3.5,3.5 0 0 0 -1.9296,-4.55838 3.5,3.5 0 0 0 -1.342,-0.25579 z" />
      <circle
         style="fill:#ffffff;fill-opacity:1;fill-rule:evenodd;stroke:none;stroke-width:0;stroke-dasharray:none"
         id="path14-0-6-2-6-8-3-7-2"
         cx="1245.7368"
         cy="572.46393"
         r="3.5" />
      <circle
         style="fill:#ffffff;fill-opacity:1;fill-rule:evenodd;stroke:none;stroke-width:0;stroke-dasharray:none"
         id="path14-0-6-2-6-8-9-9-0-7"
         cx="1227.026"
         cy="497.42947"
         r="3.5" />
    </g>
  </g>
</svg>
