<?xml version="1.0" encoding="utf-8"?>
<!-- Generator: Adobe Illustrator 25.2.3, SVG Export Plug-In . SVG Version: 6.00 Build 0)  -->
<svg version="1.1" id="Livello_1" xmlns="http://www.w3.org/2000/svg" xmlns:xlink="http://www.w3.org/1999/xlink" x="0px" y="0px"
	 viewBox="0 0 211.8 313.8" style="enable-background:new 0 0 211.8 313.8;" xml:space="preserve">
<style type="text/css">
	.st0{fill:#FFFFFF;}
</style>
<path class="st0" d="M174.3,46.7c0.9-0.9,2.2-1.1,3.3-0.6c3.1,1.4,6.5,2.2,10,2.2c13.9,0,25-11.7,24.1-25.7
	C211,10.6,201.2,0.8,189.2,0c-14-0.9-25.7,10.3-25.7,24.1c0,3.6,0.8,7,2.2,10c0.5,1.1,0.3,2.5-0.6,3.3l-1.4,1.4
	c-1.1,1.1-2.8,1.2-3.9,0.2c-16.9-14-38.6-22.4-62.3-22.4C44.3,16.7,0.5,60.1,0,113.3c-0.5,51.3,38.6,93.5,88.5,98.1
	c1.5,0.1,2.7,1.4,2.7,2.9v0c0,1.4-1,2.6-2.4,2.9C65.5,221.6,48,242.4,49,267.2c1,25.2,21.5,45.6,46.7,46.6
	c27.8,1.1,50.7-21.1,50.7-48.7c0-23.9-17.2-43.7-39.8-47.9c-1.4-0.3-2.4-1.5-2.4-2.9v-0.1c0-1.5,1.2-2.8,2.7-2.9
	c49.5-4.7,88.3-46.4,88.3-97.1c0-23.7-8.4-45.3-22.4-62.2c-1-1.2-0.9-2.9,0.2-3.9L174.3,46.7z M97.6,138.4
	c-13.3,0-24.2-10.8-24.2-24.2s10.8-24.2,24.2-24.2c13.3,0,24.2,10.8,24.2,24.2S110.9,138.4,97.6,138.4z"/>
</svg>
