<?xml version="1.0" encoding="utf-8"?>
<!-- Generator: Adobe Illustrator 25.4.1, SVG Export Plug-In . SVG Version: 6.00 Build 0)  -->
<svg version="1.1" id="Livello_1" xmlns="http://www.w3.org/2000/svg" xmlns:xlink="http://www.w3.org/1999/xlink" x="0px" y="0px"
	 viewBox="0 0 1248 291.4" style="enable-background:new 0 0 1248 291.4;" xml:space="preserve">
<style type="text/css">
	.st0{fill:#FFFFFF;}
	.st1{fill:#164194;}
	.st2{fill:#FFEC00;}
</style>
<g>
	<g>
		<rect class="st0" width="429.1" height="291.4"/>
		<path class="st0" d="M214.5,148.4"/>
	</g>
	<g>
		<rect x="8.3" y="8" class="st1" width="412.6" height="275"/>
		<path class="st1" d="M214.5,145.5"/>
	</g>
	<g>
		<polygon class="st2" points="205.7,67.9 214.4,61.6 223.2,67.9 219.8,57.6 228.7,51.3 217.8,51.3 214.4,40.9 211.1,51.3 
			200.2,51.3 209.1,57.6 		"/>
		<polygon class="st2" points="160.7,80 169.4,73.7 178.1,80 174.8,69.7 183.6,63.4 172.7,63.4 169.4,53 166.1,63.4 155.2,63.4 
			164,69.7 		"/>
		<polygon class="st2" points="136.4,86 133.1,96.4 122.2,96.4 131,102.8 127.7,113.1 136.4,106.7 145.1,113.1 141.8,102.8 
			150.7,96.4 139.8,96.4 		"/>
		<polygon class="st2" points="124.3,151.7 133,158.1 129.7,147.8 138.6,141.4 127.7,141.4 124.3,131 121,141.4 110.1,141.4 
			118.9,147.8 115.6,158.1 		"/>
		<polygon class="st2" points="139.8,186.6 136.4,176.1 133.1,186.6 122.2,186.6 131,192.9 127.7,203.2 136.4,196.8 145.1,203.2 
			141.8,192.9 150.7,186.6 		"/>
		<polygon class="st2" points="172.8,219.6 169.5,209.2 166.1,219.6 155.2,219.6 164.1,225.9 160.8,236.2 169.5,229.9 178.2,236.2 
			174.9,225.9 183.7,219.6 		"/>
		<polygon class="st2" points="217.8,231.6 214.5,221.1 211.1,231.6 200.2,231.6 209.1,237.9 205.8,248.2 214.5,241.8 223.2,248.2 
			219.8,237.9 228.7,231.6 		"/>
		<polygon class="st2" points="262.8,219.6 259.5,209.2 256.1,219.6 245.2,219.6 254.1,225.9 250.7,236.2 259.5,229.9 268.2,236.2 
			264.8,225.9 273.7,219.6 		"/>
		<polygon class="st2" points="295.8,186.6 292.5,176.1 289.1,186.6 278.3,186.6 287.1,192.9 283.8,203.2 292.5,196.8 301.2,203.2 
			297.9,192.9 306.7,186.6 		"/>
		<polygon class="st2" points="318.7,141.3 307.8,141.3 304.4,130.9 301.1,141.3 290.2,141.3 299,147.7 295.7,157.9 304.4,151.6 
			313.1,157.9 309.8,147.7 		"/>
		<polygon class="st2" points="283.8,112.9 292.5,106.6 301.2,112.9 297.9,102.6 306.7,96.3 295.8,96.3 292.5,85.9 289.1,96.3 
			278.3,96.3 287.1,102.6 		"/>
		<polygon class="st2" points="259.6,53 256.2,63.4 245.3,63.4 254.2,69.8 250.9,80 259.6,73.7 268.3,80 265,69.8 273.8,63.4 
			262.9,63.4 		"/>
	</g>
</g>
<g>
	<path class="st0" d="M487.3,116.7V54.5h42v7.3h-33.8v19.3h29.2v7.3h-29.2v28.3H487.3z"/>
	<path class="st0" d="M568.6,116.7v-6.6c-3.5,5.1-8.3,7.6-14.3,7.6c-2.7,0-5.1-0.5-7.5-1.5c-2.3-1-4-2.3-5.1-3.8
		c-1.1-1.5-1.9-3.4-2.4-5.7c-0.3-1.5-0.5-3.9-0.5-7.1V71.6h7.6v25c0,4,0.2,6.7,0.5,8.1c0.5,2,1.5,3.6,3.1,4.7
		c1.6,1.1,3.5,1.7,5.8,1.7c2.3,0,4.4-0.6,6.5-1.8c2-1.2,3.4-2.8,4.3-4.8c0.8-2,1.3-5,1.3-8.8V71.6h7.6v45.1H568.6z"/>
	<path class="st0" d="M587.4,116.7V71.6h6.9V78c3.3-5,8.1-7.4,14.4-7.4c2.7,0,5.2,0.5,7.5,1.5c2.3,1,4,2.3,5.1,3.8
		c1.1,1.6,1.9,3.5,2.4,5.6c0.3,1.4,0.4,3.9,0.4,7.4v27.7h-7.6V89.3c0-3.1-0.3-5.4-0.9-7c-0.6-1.5-1.6-2.8-3.2-3.7
		c-1.5-0.9-3.3-1.4-5.3-1.4c-3.3,0-6.1,1-8.4,3.1c-2.4,2.1-3.5,6-3.5,11.8v24.6H587.4z"/>
	<path class="st0" d="M665,116.7V111c-2.9,4.5-7.1,6.7-12.6,6.7c-3.6,0-6.9-1-9.9-3c-3-2-5.4-4.8-7-8.3s-2.5-7.6-2.5-12.3
		c0-4.5,0.8-8.6,2.3-12.3c1.5-3.7,3.8-6.5,6.8-8.4c3-2,6.4-2.9,10.1-2.9c2.7,0,5.1,0.6,7.3,1.7c2.1,1.1,3.9,2.6,5.2,4.5V54.5h7.6
		v62.3H665z M640.9,94.2c0,5.8,1.2,10.1,3.7,13c2.4,2.9,5.3,4.3,8.6,4.3c3.3,0,6.2-1.4,8.5-4.1c2.3-2.7,3.5-6.9,3.5-12.5
		c0-6.2-1.2-10.7-3.6-13.6c-2.4-2.9-5.3-4.3-8.8-4.3c-3.4,0-6.2,1.4-8.5,4.2C642,83.9,640.9,88.2,640.9,94.2z"/>
	<path class="st0" d="M715,102.2l7.9,1c-1.2,4.6-3.6,8.2-6.9,10.7c-3.4,2.5-7.7,3.8-12.9,3.8c-6.6,0-11.8-2-15.7-6.1
		c-3.9-4.1-5.8-9.8-5.8-17.1c0-7.6,2-13.5,5.9-17.7c3.9-4.2,9-6.3,15.2-6.3c6,0,11,2.1,14.8,6.2c3.8,4.1,5.7,9.9,5.7,17.3
		c0,0.5,0,1.1,0,2h-33.6c0.3,5,1.7,8.8,4.2,11.4c2.5,2.6,5.7,4,9.4,4c2.8,0,5.2-0.7,7.2-2.2C712.3,107.8,713.9,105.4,715,102.2z
		 M689.9,89.8h25.2c-0.3-3.8-1.3-6.6-2.9-8.5c-2.4-2.9-5.6-4.4-9.5-4.4c-3.5,0-6.5,1.2-8.9,3.5C691.5,82.8,690.2,85.9,689.9,89.8z"
		/>
	<path class="st0" d="M761.8,116.7V111c-2.9,4.5-7.1,6.7-12.6,6.7c-3.6,0-6.9-1-9.9-3c-3-2-5.4-4.8-7-8.3s-2.5-7.6-2.5-12.3
		c0-4.5,0.8-8.6,2.3-12.3c1.5-3.7,3.8-6.5,6.8-8.4c3-2,6.4-2.9,10.1-2.9c2.7,0,5.1,0.6,7.3,1.7c2.1,1.1,3.9,2.6,5.2,4.5V54.5h7.6
		v62.3H761.8z M737.6,94.2c0,5.8,1.2,10.1,3.7,13c2.4,2.9,5.3,4.3,8.6,4.3c3.3,0,6.2-1.4,8.5-4.1c2.3-2.7,3.5-6.9,3.5-12.5
		c0-6.2-1.2-10.7-3.6-13.6c-2.4-2.9-5.3-4.3-8.8-4.3c-3.4,0-6.2,1.4-8.5,4.2C738.8,83.9,737.6,88.2,737.6,94.2z"/>
	<path class="st0" d="M812.1,116.7H805V54.5h7.6v22.2c3.2-4,7.3-6.1,12.4-6.1c2.8,0,5.4,0.6,7.9,1.7c2.5,1.1,4.5,2.7,6.1,4.7
		c1.6,2,2.9,4.5,3.8,7.3c0.9,2.9,1.4,5.9,1.4,9.2c0,7.7-1.9,13.7-5.7,17.9c-3.8,4.2-8.4,6.3-13.8,6.3c-5.3,0-9.5-2.2-12.5-6.7V116.7
		z M812,93.8c0,5.4,0.7,9.3,2.2,11.7c2.4,3.9,5.7,5.9,9.8,5.9c3.3,0,6.2-1.5,8.7-4.4c2.4-2.9,3.7-7.2,3.7-13c0-5.9-1.2-10.2-3.5-13
		c-2.3-2.8-5.2-4.2-8.5-4.2c-3.3,0-6.2,1.5-8.7,4.4C813.3,84.1,812,88.3,812,93.8z"/>
	<path class="st0" d="M853.1,134.1l-0.8-7.2c1.7,0.5,3.1,0.7,4.4,0.7c1.7,0,3.1-0.3,4.1-0.8c1-0.6,1.9-1.4,2.5-2.4
		c0.5-0.8,1.3-2.7,2.3-5.7c0.1-0.4,0.4-1,0.7-1.9l-17.1-45.2h8.2l9.4,26.1c1.2,3.3,2.3,6.8,3.3,10.4c0.9-3.5,1.9-6.9,3.1-10.3
		l9.6-26.3h7.6l-17.2,45.9c-1.8,5-3.3,8.4-4.3,10.2c-1.4,2.5-2.9,4.4-4.7,5.5s-3.9,1.8-6.3,1.8C856.6,135,854.9,134.7,853.1,134.1z"
		/>
	<path class="st0" d="M502.6,214.3l1.1,6.8c-2.2,0.5-4.1,0.7-5.8,0.7c-2.8,0-4.9-0.4-6.5-1.3c-1.5-0.9-2.6-2-3.2-3.5
		c-0.6-1.4-0.9-4.4-0.9-9v-26h-5.6V176h5.6v-11.2l7.6-4.6V176h7.7v5.9h-7.7v26.4c0,2.2,0.1,3.6,0.4,4.2c0.3,0.6,0.7,1.1,1.3,1.5
		c0.6,0.4,1.5,0.6,2.6,0.6C500.1,214.6,501.2,214.5,502.6,214.3z"/>
	<path class="st0" d="M510,221.1v-62.3h7.6v22.3c3.6-4.1,8.1-6.2,13.5-6.2c3.3,0,6.2,0.7,8.7,2c2.5,1.3,4.2,3.1,5.3,5.5
		c1.1,2.3,1.6,5.7,1.6,10.1v28.6h-7.6v-28.6c0-3.8-0.8-6.6-2.5-8.3c-1.7-1.7-4-2.6-7-2.6c-2.3,0-4.4,0.6-6.4,1.8
		c-2,1.2-3.4,2.8-4.3,4.8c-0.8,2-1.3,4.8-1.3,8.3v24.7H510z"/>
	<path class="st0" d="M589.3,206.6l7.9,1c-1.2,4.6-3.6,8.2-6.9,10.7c-3.4,2.5-7.7,3.8-12.9,3.8c-6.6,0-11.8-2-15.7-6.1
		c-3.9-4.1-5.8-9.8-5.8-17.1c0-7.6,2-13.5,5.9-17.7c3.9-4.2,9-6.3,15.2-6.3c6,0,11,2.1,14.8,6.2c3.8,4.1,5.7,9.9,5.7,17.3
		c0,0.5,0,1.1,0,2h-33.6c0.3,5,1.7,8.8,4.2,11.4c2.5,2.6,5.7,4,9.4,4c2.8,0,5.2-0.7,7.2-2.2C586.6,212.2,588.1,209.8,589.3,206.6z
		 M564.2,194.2h25.2c-0.3-3.8-1.3-6.6-2.9-8.5c-2.4-2.9-5.6-4.4-9.5-4.4c-3.5,0-6.5,1.2-8.9,3.5
		C565.8,187.2,564.4,190.3,564.2,194.2z"/>
	<path class="st0" d="M632.1,221.1v-62.3h45v7.3h-36.8v19.1h34.4v7.3h-34.4v21.2h38.2v7.3H632.1z"/>
	<path class="st0" d="M718.5,221.1v-6.6c-3.5,5.1-8.3,7.6-14.3,7.6c-2.7,0-5.1-0.5-7.5-1.5c-2.3-1-4-2.3-5.1-3.8
		c-1.1-1.5-1.9-3.4-2.4-5.7c-0.3-1.5-0.5-3.9-0.5-7.1V176h7.6v25c0,4,0.2,6.7,0.5,8.1c0.5,2,1.5,3.6,3.1,4.7
		c1.6,1.1,3.5,1.7,5.8,1.7c2.3,0,4.4-0.6,6.5-1.8c2-1.2,3.4-2.8,4.3-4.8c0.8-2,1.3-5,1.3-8.8V176h7.6v45.1H718.5z"/>
	<path class="st0" d="M737.3,221.1V176h6.9v6.8c1.8-3.2,3.4-5.3,4.9-6.3c1.5-1,3.1-1.5,4.9-1.5c2.6,0,5.2,0.8,7.9,2.5l-2.6,7.1
		c-1.9-1.1-3.7-1.7-5.6-1.7c-1.7,0-3.2,0.5-4.5,1.5s-2.3,2.4-2.8,4.2c-0.8,2.7-1.3,5.7-1.3,8.9v23.6H737.3z"/>
	<path class="st0" d="M763.5,198.6c0-8.4,2.3-14.5,7-18.6c3.9-3.3,8.6-5,14.2-5c6.2,0,11.3,2,15.2,6.1c3.9,4.1,5.9,9.7,5.9,16.8
		c0,5.8-0.9,10.4-2.6,13.7s-4.3,5.9-7.6,7.8c-3.3,1.8-7,2.8-10.9,2.8c-6.3,0-11.4-2-15.3-6.1C765.4,212,763.5,206.2,763.5,198.6z
		 M771.3,198.6c0,5.8,1.3,10.1,3.8,13s5.7,4.3,9.5,4.3c3.8,0,7-1.4,9.5-4.3c2.5-2.9,3.8-7.3,3.8-13.2c0-5.6-1.3-9.8-3.8-12.7
		c-2.5-2.9-5.7-4.3-9.5-4.3c-3.8,0-7,1.4-9.5,4.3C772.6,188.5,771.3,192.8,771.3,198.6z"/>
	<path class="st0" d="M814.7,238.4V176h7v5.9c1.6-2.3,3.5-4,5.6-5.2c2.1-1.1,4.6-1.7,7.5-1.7c3.9,0,7.2,1,10.2,3
		c2.9,2,5.2,4.8,6.7,8.4c1.5,3.6,2.3,7.6,2.3,11.9c0,4.6-0.8,8.8-2.5,12.5c-1.7,3.7-4.1,6.5-7.2,8.5c-3.2,2-6.5,3-10,3
		c-2.5,0-4.8-0.5-6.9-1.6c-2-1.1-3.7-2.4-5-4.1v22H814.7z M821.6,198.8c0,5.8,1.2,10.1,3.5,12.9c2.3,2.8,5.2,4.2,8.5,4.2
		c3.4,0,6.3-1.4,8.7-4.3s3.6-7.3,3.6-13.4c0-5.7-1.2-10.1-3.5-12.9c-2.4-2.9-5.2-4.3-8.5-4.3c-3.3,0-6.1,1.5-8.6,4.6
		S821.6,193,821.6,198.8z"/>
	<path class="st0" d="M894,206.6l7.9,1c-1.2,4.6-3.6,8.2-6.9,10.7c-3.4,2.5-7.7,3.8-12.9,3.8c-6.6,0-11.8-2-15.7-6.1
		c-3.9-4.1-5.8-9.8-5.8-17.1c0-7.6,2-13.5,5.9-17.7c3.9-4.2,9-6.3,15.2-6.3c6,0,11,2.1,14.8,6.2c3.8,4.1,5.7,9.9,5.7,17.3
		c0,0.5,0,1.1,0,2h-33.6c0.3,5,1.7,8.8,4.2,11.4c2.5,2.6,5.7,4,9.4,4c2.8,0,5.2-0.7,7.2-2.2C891.2,212.2,892.8,209.8,894,206.6z
		 M868.9,194.2h25.2c-0.3-3.8-1.3-6.6-2.9-8.5c-2.4-2.9-5.6-4.4-9.5-4.4c-3.5,0-6.5,1.2-8.9,3.5
		C870.4,187.2,869.1,190.3,868.9,194.2z"/>
	<path class="st0" d="M940.9,215.6c-2.8,2.4-5.6,4.1-8.2,5.1c-2.6,1-5.4,1.5-8.4,1.5c-5,0-8.8-1.2-11.4-3.6c-2.7-2.4-4-5.5-4-9.3
		c0-2.2,0.5-4.2,1.5-6.1c1-1.8,2.3-3.3,4-4.4c1.6-1.1,3.5-1.9,5.5-2.5c1.5-0.4,3.8-0.8,6.8-1.1c6.2-0.7,10.7-1.6,13.6-2.6
		c0-1,0-1.7,0-2c0-3.1-0.7-5.3-2.2-6.6c-2-1.7-4.9-2.6-8.7-2.6c-3.6,0-6.3,0.6-8,1.9c-1.7,1.3-3,3.5-3.8,6.7l-7.5-1
		c0.7-3.2,1.8-5.8,3.4-7.8c1.6-2,3.8-3.5,6.8-4.5c2.9-1.1,6.4-1.6,10.2-1.6c3.9,0,7,0.5,9.4,1.4c2.4,0.9,4.2,2,5.3,3.4
		c1.1,1.4,1.9,3.1,2.4,5.2c0.3,1.3,0.4,3.7,0.4,7.1v10.2c0,7.1,0.2,11.6,0.5,13.5c0.3,1.9,1,3.7,1.9,5.4h-8
		C941.6,219.5,941.1,217.7,940.9,215.6z M940.3,198.5c-2.8,1.1-6.9,2.1-12.5,2.9c-3.1,0.5-5.4,1-6.7,1.5s-2.3,1.4-3,2.5
		c-0.7,1.1-1.1,2.3-1.1,3.6c0,2,0.8,3.7,2.3,5.1c1.5,1.4,3.8,2,6.8,2c2.9,0,5.6-0.6,7.9-1.9c2.3-1.3,4-3.1,5.1-5.3
		c0.8-1.7,1.2-4.3,1.2-7.6V198.5z"/>
	<path class="st0" d="M959.9,221.1V176h6.9v6.4c3.3-5,8.1-7.4,14.4-7.4c2.7,0,5.2,0.5,7.5,1.5c2.3,1,4,2.3,5.1,3.8
		c1.1,1.6,1.9,3.5,2.4,5.6c0.3,1.4,0.4,3.9,0.4,7.4v27.7h-7.6v-27.4c0-3.1-0.3-5.4-0.9-7c-0.6-1.5-1.6-2.8-3.2-3.7
		c-1.5-0.9-3.3-1.4-5.3-1.4c-3.3,0-6.1,1-8.4,3.1c-2.4,2.1-3.5,6-3.5,11.8v24.6H959.9z"/>
	<path class="st0" d="M1074.2,158.9h8.2v36c0,6.3-0.7,11.2-2.1,14.9c-1.4,3.7-4,6.7-7.7,9s-8.5,3.5-14.5,3.5c-5.8,0-10.6-1-14.3-3
		c-3.7-2-6.4-4.9-7.9-8.7s-2.4-9-2.4-15.6v-36h8.2v35.9c0,5.4,0.5,9.4,1.5,12c1,2.6,2.7,4.5,5.2,5.9s5.4,2.1,9,2.1
		c6.1,0,10.4-1.4,13-4.1c2.6-2.7,3.9-8,3.9-15.8V158.9z"/>
	<path class="st0" d="M1095.2,221.1V176h6.9v6.4c3.3-5,8.1-7.4,14.4-7.4c2.7,0,5.2,0.5,7.5,1.5c2.3,1,4,2.3,5.1,3.8
		c1.1,1.6,1.9,3.5,2.4,5.6c0.3,1.4,0.4,3.9,0.4,7.4v27.7h-7.6v-27.4c0-3.1-0.3-5.4-0.9-7c-0.6-1.5-1.6-2.8-3.2-3.7
		c-1.5-0.9-3.3-1.4-5.3-1.4c-3.3,0-6.1,1-8.4,3.1c-2.4,2.1-3.5,6-3.5,11.8v24.6H1095.2z"/>
	<path class="st0" d="M1143.6,167.6v-8.8h7.6v8.8H1143.6z M1143.6,221.1V176h7.6v45.1H1143.6z"/>
	<path class="st0" d="M1160.1,198.6c0-8.4,2.3-14.5,7-18.6c3.9-3.3,8.6-5,14.2-5c6.2,0,11.3,2,15.2,6.1c3.9,4.1,5.9,9.7,5.9,16.8
		c0,5.8-0.9,10.4-2.6,13.7s-4.3,5.9-7.6,7.8c-3.3,1.8-7,2.8-10.9,2.8c-6.3,0-11.4-2-15.3-6.1C1162,212,1160.1,206.2,1160.1,198.6z
		 M1167.9,198.6c0,5.8,1.3,10.1,3.8,13s5.7,4.3,9.5,4.3c3.8,0,7-1.4,9.5-4.3c2.5-2.9,3.8-7.3,3.8-13.2c0-5.6-1.3-9.8-3.8-12.7
		c-2.5-2.9-5.7-4.3-9.5-4.3c-3.8,0-7,1.4-9.5,4.3C1169.2,188.5,1167.9,192.8,1167.9,198.6z"/>
	<path class="st0" d="M1211.3,221.1V176h6.9v6.4c3.3-5,8.1-7.4,14.4-7.4c2.7,0,5.2,0.5,7.5,1.5c2.3,1,4,2.3,5.1,3.8
		c1.1,1.6,1.9,3.5,2.4,5.6c0.3,1.4,0.4,3.9,0.4,7.4v27.7h-7.6v-27.4c0-3.1-0.3-5.4-0.9-7c-0.6-1.5-1.6-2.8-3.2-3.7
		c-1.5-0.9-3.3-1.4-5.3-1.4c-3.3,0-6.1,1-8.4,3.1c-2.4,2.1-3.5,6-3.5,11.8v24.6H1211.3z"/>
</g>
</svg>
