<?xml version="1.0" encoding="utf-8"?>
<!-- Generator: Adobe Illustrator 25.4.1, SVG Export Plug-In . SVG Version: 6.00 Build 0)  -->
<svg version="1.1" id="Livello_1" xmlns="http://www.w3.org/2000/svg" xmlns:xlink="http://www.w3.org/1999/xlink" x="0px" y="0px"
	 viewBox="0 0 513.6 276.8" style="enable-background:new 0 0 513.6 276.8;" xml:space="preserve">
<style type="text/css">
	.st0{fill:#FFFFFF;}
	.st1{fill:#CECECD;}
	.st2{fill:#EF7A33;}
</style>
<g>
	<path class="st0" d="M241.7,171.9h-19.1V131c0-5.1-0.9-8.8-2.7-11.4c-1.8-2.5-4.7-3.8-8.6-3.8c-5.3,0-9.2,1.8-11.6,5.4
		c-2.4,3.6-3.6,9.5-3.6,17.8v32.9H177v-70h14.6l2.6,9h1.1c2.1-3.4,5.1-5.9,8.8-7.7c3.7-1.7,8-2.6,12.7-2.6c8.1,0,14.3,2.2,18.5,6.6
		s6.3,10.8,6.3,19.1v45.6H241.7z"/>
	<path class="st0" d="M293.1,173.1c-11.3,0-20.1-3.1-26.4-9.3s-9.5-15-9.5-26.4c0-11.7,2.9-20.8,8.8-27.2c5.9-6.4,14-9.6,24.3-9.6
		c9.9,0,17.6,2.8,23.1,8.5c5.5,5.6,8.3,13.4,8.3,23.4v9.3h-45.2c0.2,5.4,1.8,9.7,4.8,12.7s7.2,4.6,12.7,4.6c4.2,0,8.2-0.4,12-1.3
		c3.8-0.9,7.7-2.3,11.8-4.2v14.8c-3.3,1.7-6.9,2.9-10.7,3.7C303.2,172.7,298.5,173.1,293.1,173.1z M290.4,114.1
		c-4.1,0-7.2,1.3-9.5,3.9s-3.6,6.2-3.9,10.9h26.8c-0.1-4.7-1.3-8.4-3.7-10.9C297.6,115.4,294.4,114.1,290.4,114.1z"/>
</g>
<g>
	<path class="st0" d="M54.3,248.5H41.6v-26H17.7v26H4.9v-60.2h12.8v23.6h23.9v-23.6h12.7V248.5z"/>
	<path class="st0" d="M104.2,248.5H69.5v-60.2h34.7v10.5H82.3V212h20.4v10.5H82.3V238h21.9V248.5z"/>
	<path class="st0" d="M153.6,248.5l-4.4-14.3h-22l-4.4,14.3H109l21.3-60.5h15.6l21.5,60.5H153.6z M146.2,223.5
		c-4-13-6.3-20.3-6.8-22s-0.9-3-1.1-4c-0.9,3.5-3.5,12.2-7.8,26.1h15.7V223.5z"/>
	<path class="st0" d="M175,248.5v-60.2h12.8V238h24.4v10.5H175z"/>
	<path class="st0" d="M245.9,248.5h-12.8v-49.6h-16.4v-10.6h45.5v10.6h-16.4v49.6H245.9z"/>
	<path class="st0" d="M320.9,248.5h-12.7v-26h-23.9v26h-12.8v-60.2h12.8v23.6h23.9v-23.6h12.7V248.5z"/>
</g>
<g>
	<path class="st1" d="M389.2,249.3h-53.8v-93.5h53.8V172h-34v20.5h31.6v16.2h-31.6v24.1h34V249.3z"/>
	<path class="st1" d="M398.9,276.8c-4.5,0-8.4-0.5-11.7-1.4v-16.5c3.4,0.9,6.5,1.3,9.3,1.3c4.3,0,7.5-1.4,9.3-4.1s2.8-6.9,2.8-12.7
		v-87.6h19.8v87.4c0,10.9-2.5,19.2-7.5,24.9C416.1,273.9,408.7,276.8,398.9,276.8z"/>
	<path class="st1" d="M513.6,185c0,10.1-3.1,17.7-9.4,23.1c-6.3,5.3-15.2,8-26.8,8h-8.5v33.2h-19.8v-93.5H479
		c11.3,0,20,2.4,25.9,7.3C510.6,168.1,513.6,175.3,513.6,185z M468.9,199.8h6.5c6.1,0,10.7-1.2,13.7-3.6c3-2.4,4.5-5.9,4.5-10.5
		s-1.3-8.1-3.8-10.3s-6.5-3.3-11.9-3.3h-9L468.9,199.8L468.9,199.8z"/>
</g>
<g>
	<g>
		<polygon class="st2" points="77.1,23.6 83.9,18.7 90.7,23.6 88.1,15.6 95,10.6 86.5,10.6 83.9,2.5 81.3,10.6 72.8,10.6 79.7,15.6 
					"/>
		<path class="st2" d="M92.1,25.5l-8.2-5.9l-8.2,5.9l3.1-9.7l-8.3-6h10.3L83.9,0L87,9.8h10.3l-8.3,6L92.1,25.5z M83.9,17.7l5.4,3.9
			l-2.1-6.3l5.5-4h-6.7l-2.1-6.4l-2.1,6.4h-6.7l5.5,4l-2.1,6.3L83.9,17.7z"/>
	</g>
	<g>
		<polygon class="st2" points="41.9,33.1 48.7,28.1 55.5,33.1 52.9,25 59.8,20.1 51.3,20.1 48.7,11.9 46.1,20.1 37.6,20.1 44.5,25 
					"/>
		<path class="st2" d="M40.4,35l3.1-9.8l-8.4-5.9h10.3l3.1-9.9l3.1,9.9h10.3l-8.4,5.9l3.1,9.8l-8.2-6L40.4,35z M48.7,27.1l5.4,4
			L52,24.7l5.4-3.9h-6.7l-2.1-6.5l-2.1,6.5h-6.7l5.4,3.9l-2.1,6.4L48.7,27.1z"/>
	</g>
	<g>
		<polygon class="st2" points="23,37.8 20.4,45.9 11.9,45.9 18.8,50.9 16.2,58.9 23,53.9 29.8,58.9 27.2,50.9 34.1,45.9 25.6,45.9 
					"/>
		<path class="st2" d="M31.2,60.8L23,54.8l-8.2,6.1l3.2-9.7l-8.3-6h10.3l3.1-9.8l3.1,9.8h10.3l-8.3,6L31.2,60.8z M14.2,46.6l5.5,4
			l-2,6.3l5.4-3.9l5.4,3.9l-2-6.3l5.5-4H25L23,40.2l-2.1,6.4H14.2z"/>
	</g>
	<g>
		<polygon class="st2" points="13.5,89.1 20.3,94 17.7,86 24.6,81.1 16.1,81.1 13.5,72.9 10.9,81.1 2.4,81.1 9.3,86 6.7,94 		"/>
		<path class="st2" d="M21.7,95.9L13.5,90l-8.2,5.9l3.1-9.7L0,80.3h10.3l3.1-9.9l3.1,9.9h10.3l-8.4,5.9L21.7,95.9z M4.7,81.8
			l5.4,3.9L8.1,92l5.4-3.9l5.4,3.9l-2.1-6.3l5.4-3.9h-6.7l-2.1-6.5l-2.1,6.5H4.7z"/>
	</g>
	<g>
		<polygon class="st2" points="25.6,116.3 23,108.2 20.4,116.3 11.9,116.3 18.8,121.3 16.2,129.3 23,124.3 29.8,129.3 27.2,121.3 
			34.1,116.3 		"/>
		<path class="st2" d="M31.2,131.2l-8.2-6.1l-8.2,6.1l3.2-9.7l-8.3-6h10.3l3.1-9.8l3.1,9.8h10.3l-8.3,6L31.2,131.2z M14.2,117l5.5,4
			l-2,6.3l5.4-3.9l5.4,3.9l-2-6.3l5.5-4H25l-2.1-6.4l-2.1,6.4H14.2z"/>
	</g>
	<g>
		<polygon class="st2" points="51.4,142.1 48.8,134 46.2,142.1 37.7,142.1 44.6,147.1 42,155.1 48.8,150.1 55.6,155.1 53,147.1 
			59.9,142.1 		"/>
		<path class="st2" d="M40.5,157l3.2-9.7l-8.3-6h10.3l3.1-9.8l3.1,9.8h10.3l-8.3,6L57,157l-8.2-6.1L40.5,157z M48.8,149.1l5.4,3.9
			l-2-6.3l5.5-4h-6.7l-2.1-6.4l-2.1,6.4H40l5.5,4l-2,6.3L48.8,149.1z"/>
	</g>
	<g>
		<polygon class="st2" points="86.5,151.5 83.9,143.3 81.3,151.5 72.8,151.5 79.7,156.4 77.1,164.5 83.9,159.5 90.7,164.5 
			88.1,156.4 95.1,151.5 		"/>
		<path class="st2" d="M92.1,166.4l-8.2-6l-8.2,6l3.1-9.8l-8.4-5.9h10.3l3.1-9.9l3.1,9.9h10.4l-8.5,5.9L92.1,166.4z M83.9,158.5
			l5.4,4l-2.1-6.4l5.5-3.9h-6.8l-2.1-6.5l-2.1,6.5h-6.7l5.4,3.9l-2.1,6.4L83.9,158.5z"/>
	</g>
	<g>
		<polygon class="st2" points="121.7,142.1 119.1,134 116.5,142.1 108,142.1 114.9,147.1 112.3,155.1 119.1,150.1 125.9,155.1 
			123.3,147.1 130.2,142.1 		"/>
		<path class="st2" d="M127.3,157l-8.2-6.1l-8.2,6.1l3.2-9.7l-8.3-6h10.3l3.1-9.8l3.1,9.8h10.3l-8.3,6L127.3,157z M110.3,142.8
			l5.5,4l-2,6.3l5.4-3.9l5.4,3.9l-2-6.3l5.5-4h-6.7l-2.1-6.4l-2.1,6.4H110.3z"/>
	</g>
	<g>
		<polygon class="st2" points="147.5,116.3 144.9,108.2 142.3,116.3 133.8,116.3 140.7,121.3 138.1,129.3 144.9,124.3 151.7,129.3 
			149.1,121.3 156,116.3 		"/>
		<path class="st2" d="M153.1,131.2l-8.2-6.1l-8.2,6.1l3.2-9.7l-8.3-6h10.3l3.1-9.8l3.1,9.8h10.3l-8.3,6L153.1,131.2z M144.9,123.3
			l5.4,3.9l-2-6.3l5.5-4h-6.7l-2.1-6.4l-2.1,6.4h-6.7l5.5,4l-2,6.3L144.9,123.3z"/>
	</g>
	<g>
		<polygon class="st2" points="165.4,81 156.8,81 154.2,72.8 151.6,81 143.1,81 150,85.9 147.4,93.9 154.2,89 161,93.9 158.5,85.9 
					"/>
		<path class="st2" d="M145.9,95.8l3.1-9.7l-8.4-5.9H151l3.1-9.9l3.1,9.9h10.4l-8.4,5.9l3,9.6l-8.2-5.9L145.9,95.8z M154.2,88
			l5.4,3.9l-2-6.4l5.4-3.9h-6.8l-2.1-6.5l-2.1,6.5h-6.7l5.4,3.9l-2.1,6.3L154.2,88z"/>
	</g>
	<g>
		<polygon class="st2" points="138.1,58.8 144.9,53.8 151.7,58.8 149.1,50.8 156,45.8 147.5,45.8 144.9,37.7 142.3,45.8 133.8,45.8 
			140.7,50.8 		"/>
		<path class="st2" d="M153.1,60.7l-8.2-6.1l-8.2,6.1l3.2-9.7l-8.3-6h10.3l3.1-9.8L148,45h10.3l-8.3,6L153.1,60.7z M144.9,52.8
			l5.4,3.9l-2-6.3l5.5-4h-6.7l-2.1-6.4l-2.1,6.4h-6.7l5.5,4l-2,6.3L144.9,52.8z"/>
	</g>
	<g>
		<polygon class="st2" points="119.2,12 116.6,20.1 108.1,20.1 115,25.1 112.4,33.1 119.2,28.1 126,33.1 123.4,25.1 130.3,20.1 
			121.8,20.1 		"/>
		<path class="st2" d="M110.9,35l3.2-9.7l-8.3-6H116l3.1-9.8l3.1,9.8h10.3l-8.3,6l3.2,9.7l-8.2-6.1L110.9,35z M119.2,27.1l5.4,3.9
			l-2-6.3l5.5-4h-6.7l-2.1-6.4l-2.1,6.4h-6.7l5.5,4l-2,6.3L119.2,27.1z"/>
	</g>
</g>
</svg>
